<?xml version="1.0" standalone="no"?>
<!DOCTYPE svg PUBLIC "-//W3C//DTD SVG 20010904//EN"
 "http://www.w3.org/TR/2001/REC-SVG-20010904/DTD/svg10.dtd">
<svg version="1.0" xmlns="http://www.w3.org/2000/svg"
 width="367.000000pt" height="255.000000pt" viewBox="0 0 367.000000 255.000000"
 preserveAspectRatio="xMidYMid meet">

<g transform="translate(0.000000,255.000000) scale(0.100000,-0.100000)"
fill="#000000" stroke="none">
<path d="M1309 2380 c-48 -8 -85 -37 -109 -86 -19 -39 -20 -59 -20 -555 0
-514 0 -515 23 -559 12 -24 35 -53 50 -64 28 -21 39 -21 577 -21 538 0 549 0
577 21 15 11 38 40 51 64 22 44 22 45 22 557 0 551 0 554 -51 603 -13 12 -35
27 -49 33 -27 11 -1007 18 -1071 7z m1071 -45 c61 -31 60 -23 60 -604 l0 -531
-29 -32 -29 -33 -547 -3 -546 -3 -35 35 -34 34 0 531 c0 581 -1 574 58 605 41
23 1059 23 1102 1z"/>
<path d="M1635 2164 l-39 -35 37 -37 37 -37 37 38 38 37 -35 34 -35 35 -40
-35z"/>
<path d="M1832 2047 l-152 -153 35 -34 36 -34 152 152 152 152 -35 35 -35 35
-153 -153z"/>
<path d="M1400 1935 l-34 -35 154 -155 155 -155 35 35 35 35 -155 155 -156
156 -34 -36z"/>
<path d="M2187 1933 l-37 -39 35 -34 35 -34 35 35 36 35 -33 38 -33 37 -38
-38z"/>
<path d="M1950 1855 l-34 -35 154 -155 155 -155 35 35 35 35 -155 155 -156
156 -34 -36z"/>
<path d="M1400 1615 l-34 -35 35 -35 35 -36 39 35 40 34 -34 36 c-19 20 -38
36 -41 36 -3 0 -21 -16 -40 -35z"/>
<path d="M1752 1497 l-152 -153 35 -34 35 -34 155 154 155 154 -32 33 c-18 18
-34 33 -38 33 -3 0 -74 -69 -158 -153z"/>
<path d="M1950 1385 l-34 -35 37 -38 37 -37 35 35 35 36 -38 37 -38 37 -34
-35z"/>
<path d="M2058 863 l-3 -88 -52 -3 c-51 -3 -53 -4 -53 -32 0 -28 2 -29 53 -32
l52 -3 3 -217 2 -218 35 0 35 0 2 218 3 217 58 3 c56 3 57 4 57 32 0 30 0 30
-60 30 l-60 0 0 90 0 90 -35 0 -34 0 -3 -87z"/>
<path d="M2390 860 l0 -90 -50 0 c-49 0 -50 -1 -50 -29 0 -28 2 -30 48 -33
l47 -3 3 -217 2 -218 35 0 35 0 2 218 3 217 58 3 c56 3 57 4 57 32 0 28 -1 29
-57 32 l-58 3 -3 88 -3 87 -34 0 -35 0 0 -90z"/>
<path d="M315 928 c-83 -29 -130 -98 -123 -180 8 -83 64 -123 230 -168 138
-37 163 -47 199 -78 59 -49 24 -137 -65 -162 -25 -7 -77 -11 -118 -8 -96 4
-146 30 -173 86 -18 37 -24 41 -57 42 -42 0 -43 -2 -26 -51 18 -56 47 -88 101
-117 48 -25 61 -27 172 -27 108 0 125 2 168 25 58 29 84 63 95 122 23 120 -34
172 -246 228 -139 36 -176 52 -197 84 -31 47 1 109 70 136 17 7 60 12 96 13
85 0 148 -28 175 -78 16 -31 23 -35 57 -35 35 0 38 2 31 23 -21 69 -77 126
-143 146 -47 14 -205 13 -246 -1z"/>
<path d="M983 755 c-28 -14 -54 -32 -57 -40 -10 -28 -26 -15 -26 20 0 33 -2
35 -35 35 l-35 0 0 -355 0 -355 35 0 35 0 0 140 c0 77 3 140 8 140 4 0 12 -8
19 -19 21 -33 94 -61 159 -61 146 0 242 101 244 256 0 80 -23 143 -68 189 -52
52 -87 67 -162 72 -55 4 -73 1 -117 -22z m177 -64 c130 -68 128 -280 -2 -347
-34 -17 -111 -20 -149 -6 -61 24 -109 103 -109 178 0 77 45 154 105 180 43 19
115 17 155 -5z"/>
<path d="M1580 771 c-112 -36 -173 -125 -173 -253 0 -148 85 -246 223 -256 86
-6 138 10 193 58 59 52 82 111 80 205 -1 108 -44 185 -127 227 -44 23 -153 33
-196 19z m157 -78 c103 -49 126 -240 38 -323 -52 -49 -165 -55 -225 -11 -58
42 -85 144 -60 230 28 98 150 150 247 104z"/>
<path d="M2787 766 c-100 -36 -159 -126 -159 -246 0 -122 63 -216 169 -251 51
-16 160 -8 208 17 37 19 105 93 105 115 0 5 -17 9 -37 9 -30 0 -45 -8 -71 -34
-32 -33 -105 -60 -136 -51 -6 2 -23 6 -38 9 -15 4 -44 21 -64 38 -34 30 -42
43 -58 96 l-7 22 217 0 217 0 -7 56 c-12 104 -57 171 -141 210 -57 27 -138 31
-198 10z m177 -79 c39 -21 67 -58 81 -104 l6 -23 -175 0 -175 0 12 33 c17 46
37 71 77 96 48 29 122 28 174 -2z"/>
<path d="M3405 761 c-40 -18 -73 -48 -93 -86 -9 -17 -11 -10 -12 38 l0 57 -40
0 -40 0 0 -250 0 -250 39 0 39 0 4 148 c3 139 5 150 30 193 31 53 57 73 116
89 39 10 42 13 42 45 0 30 -3 35 -22 35 -13 0 -41 -9 -63 -19z"/>
</g>
</svg>
